<svg xmlns="http://www.w3.org/2000/svg" width="100" height="100" viewBox="0 0 100 100"><rect width="100%" height="100%" fill="#DDDDDD"/><path fill="#999999" d="m25.69 45.6-.5.95q-.09.16-.19.23-.11.07-.26.07-.15 0-.34-.12-.18-.11-.44-.26-.25-.14-.59-.26-.34-.11-.81-.11-.42 0-.73.1-.32.1-.53.28-.22.18-.32.43t-.1.55q0 .39.21.64.21.26.56.44.36.17.81.32.45.14.92.3.47.16.92.38.45.21.8.54.36.32.57.8.21.47.21 1.14 0 .74-.25 1.38-.25.64-.73 1.12-.48.47-1.18.75-.7.27-1.6.27-.52 0-1.02-.1t-.96-.29q-.47-.19-.87-.45t-.72-.58l.59-.97q.08-.11.2-.18.12-.07.25-.07.19 0 .41.15.21.16.51.35.3.18.71.34.4.15.96.15.86 0 1.33-.41.48-.41.48-1.17 0-.43-.22-.7-.21-.27-.56-.45-.36-.19-.81-.32-.45-.12-.91-.27-.46-.15-.91-.36t-.81-.55q-.35-.34-.56-.84-.22-.51-.22-1.25 0-.6.24-1.16.24-.56.69-.99.45-.44 1.11-.7.66-.26 1.51-.26.96 0 1.77.3.81.29 1.38.84Zm3.12 5.09h3.49q0-.36-.1-.68-.1-.32-.3-.56-.2-.24-.51-.38-.32-.14-.73-.14-.8 0-1.26.46-.46.46-.59 1.3Zm4.72 1.12h-4.76q.05.59.21 1.02.17.43.44.71.27.28.64.42.37.14.82.14.45 0 .78-.11.32-.1.57-.23.24-.12.42-.23.19-.1.36-.1.23 0 .34.17l.54.67q-.31.36-.69.61-.39.24-.8.39-.42.14-.85.2t-.84.06q-.8 0-1.49-.26-.69-.27-1.2-.79t-.8-1.29q-.29-.77-.29-1.78 0-.79.25-1.48.26-.7.73-1.21.48-.51 1.17-.81.68-.3 1.54-.3.73 0 1.35.23.61.23 1.06.68.44.44.69 1.09.25.65.25 1.48 0 .42-.09.57-.09.15-.35.15Zm3.68 3.61h-1.85v-7.69h1.13q.36 0 .47.33l.12.57q.2-.22.43-.41.22-.19.47-.32.25-.14.54-.22.29-.07.63-.07.73 0 1.2.39t.7 1.04q.18-.38.45-.65t.59-.45q.32-.17.69-.25.36-.08.73-.08.64 0 1.13.19.5.2.83.57.34.38.52.92.17.54.17 1.23v4.9h-1.85v-4.9q0-.73-.32-1.1-.32-.38-.95-.38-.28 0-.52.1-.25.1-.43.28-.19.19-.29.46-.11.28-.11.64v4.9h-1.86v-4.9q0-.77-.31-1.12-.31-.36-.91-.36-.4 0-.75.2t-.65.55v5.63Zm21.49-9.24h-4.82v3.21h4.07V51h-4.07v4.42h-2.02V44.58h6.84v1.6Zm4.76 1.43q.85 0 1.56.27.7.28 1.2.79.49.51.76 1.25.27.73.27 1.64 0 .91-.27 1.65-.27.73-.76 1.25-.5.52-1.2.8-.71.27-1.56.27-.86 0-1.57-.27-.7-.28-1.2-.8t-.77-1.25q-.28-.74-.28-1.65 0-.91.28-1.64.27-.74.77-1.25t1.2-.79q.71-.27 1.57-.27Zm0 6.5q.96 0 1.42-.65.46-.64.46-1.89 0-1.24-.46-1.9-.46-.65-1.42-.65-.98 0-1.44.66-.47.66-.47 1.89 0 1.24.47 1.89.46.65 1.44.65Zm7.78 1.43q-1.01 0-1.54-.57-.54-.56-.54-1.56v-4.3h-.79q-.15 0-.25-.09-.11-.1-.11-.3v-.73l1.24-.2.39-2.1q.04-.15.14-.24.11-.08.27-.08h.96v2.42h2.06v1.32h-2.06v4.17q0 .36.18.57.17.2.48.2.17 0 .29-.04.12-.04.2-.09.09-.04.16-.09.06-.04.13-.04.08 0 .14.04.05.05.11.13l.55.9q-.4.34-.93.51-.52.17-1.08.17Zm6.42-7.93q.85 0 1.55.27.71.28 1.2.79.5.51.77 1.25.27.73.27 1.64 0 .91-.27 1.65-.27.73-.77 1.25-.49.52-1.2.8-.7.27-1.55.27-.87 0-1.57-.27-.71-.28-1.2-.8-.5-.52-.78-1.25-.27-.74-.27-1.65 0-.91.27-1.64.28-.74.78-1.25.49-.51 1.2-.79.7-.27 1.57-.27Zm0 6.5q.96 0 1.42-.65.46-.64.46-1.89 0-1.24-.46-1.9-.46-.65-1.42-.65-.98 0-1.45.66t-.47 1.89q0 1.24.47 1.89.47.65 1.45.65Z"/></svg>